<?xml version="1.0" standalone="no"?>
<!DOCTYPE svg PUBLIC "-//W3C//DTD SVG 20010904//EN"
 "http://www.w3.org/TR/2001/REC-SVG-20010904/DTD/svg10.dtd">
<svg version="1.0" xmlns="http://www.w3.org/2000/svg"
 width="420.000000pt" height="420.000000pt" viewBox="0 0 420.000000 420.000000"
 preserveAspectRatio="xMidYMid meet">

<g transform="translate(0.000000,420.000000) scale(0.100000,-0.100000)"
fill="#724cf9" stroke="none">
<path d="M1965 3624 c-246 -33 -435 -134 -601 -320 -280 -315 -443 -730 -483
-1229 -10 -124 -3 -241 25 -405 12 -70 65 -224 108 -308 78 -158 132 -230 275
-372 184 -182 299 -250 526 -308 86 -23 121 -26 255 -26 134 0 169 4 255 26
229 58 372 145 556 334 330 342 446 774 348 1304 -73 397 -215 709 -446 975
-163 188 -360 297 -590 325 -49 6 -97 12 -108 14 -11 2 -65 -3 -120 -10z
m-161 -554 c8 0 25 -12 40 -26 20 -20 26 -37 26 -68 0 -37 -7 -50 -60 -109
-76 -86 -127 -161 -179 -264 -42 -85 -95 -233 -112 -313 -27 -132 -39 -211
-39 -260 -2 -135 -34 -190 -111 -190 -31 0 -47 7 -70 29 -28 28 -29 33 -29
118 1 283 123 666 283 888 113 156 178 214 225 199 8 -2 19 -4 26 -4z"/>
</g>
</svg>
